{"glyphs":{"0":{"ha":821,"x_min":44,"x_max":938,"o":"m 938 419 q 447 -121 938 -136 q 107 60 196 -112 q 44 453 44 182 q 177 841 44 674 q 496 1008 310 1008 q 814 832 686 1008 q 938 419 938 661 m 847 419 q 740 779 847 635 q 496 918 639 918 q 246 783 354 918 q 135 453 135 644 q 178 119 135 213 q 450 -31 244 -24 q 769 93 675 -37 q 847 419 847 200 m 646 443 q 601 253 653 328 q 469 182 549 179 q 369 243 396 185 q 343 444 343 301 q 410 643 344 575 q 499 694 449 683 q 589 628 544 693 q 646 443 639 554 m 556 438 q 496 599 549 551 q 433 443 435 551 q 451 282 433 321 q 474 272 460 278 q 526 304 501 272 q 556 438 560 350 z "},"1":{"ha":410,"x_min":67,"x_max":517,"o":"m 514 933 l 485 -17 q 419 -97 483 -67 q 282 -124 363 -124 q 156 -99 207 -124 q 97 -22 99 -71 l 68 821 q 190 952 67 879 q 414 1025 314 1025 q 514 933 517 1025 m 424 936 l 158 824 l 188 -19 l 394 -14 l 424 936 z "},"2":{"ha":792,"x_min":53,"x_max":900,"o":"m 801 -86 q 550 -182 788 -182 q 218 -126 368 -182 q 68 17 53 -67 q 157 260 93 154 q 299 433 207 346 q 158 482 201 461 q 67 586 67 526 q 231 891 67 729 q 540 1053 394 1053 q 742 974 647 1053 q 858 822 815 910 q 900 644 900 735 q 722 354 900 447 q 613 275 661 322 q 793 235 753 254 q 840 157 840 213 q 828 63 840 129 q 801 -86 807 -49 m 536 658 q 514 676 524 676 q 469 589 497 676 q 536 658 497 613 m 749 164 l 451 208 q 503 288 472 250 q 681 435 575 379 q 810 650 810 503 q 683 904 810 797 q 543 957 621 957 q 302 840 419 957 q 157 585 185 724 l 350 513 q 513 778 413 778 q 579 746 546 778 q 628 658 628 700 q 522 517 628 606 q 313 322 364 382 q 157 0 190 178 l 713 -72 l 749 164 z "},"3":{"ha":694,"x_min":-29,"x_max":786,"o":"m 785 206 q 507 -136 785 -47 q 304 -172 394 -172 q 175 -81 174 -172 q 174 -37 175 -72 q 172 21 172 -3 q 261 196 172 196 q 293 192 272 196 q 325 188 314 188 q 360 206 360 188 q 328 238 360 224 q 222 260 289 256 q 133 403 133 265 q 176 564 133 497 q 22 626 60 604 q -29 699 -29 657 q 108 932 -29 757 q 363 1053 204 1053 q 651 944 522 1053 q 786 682 786 831 q 701 467 786 569 q 785 206 785 375 m 694 206 q 560 454 694 413 q 694 683 694 557 q 686 744 694 714 q 565 903 660 843 q 374 958 479 958 q 179 876 244 958 q 60 700 68 736 l 264 629 q 381 756 321 756 q 413 744 397 756 q 446 674 446 721 q 396 567 446 613 q 253 524 339 515 l 228 350 q 449 219 449 328 q 447 200 449 210 q 317 99 428 99 q 269 104 292 99 l 265 -82 q 481 -50 390 -79 q 694 206 694 19 z "},"4":{"ha":707,"x_min":40,"x_max":750,"o":"m 40 826 q 51 993 40 960 q 128 1043 67 1035 q 325 1056 226 1050 q 380 1036 357 1058 q 403 982 403 1014 l 403 958 q 438 968 417 967 q 482 972 460 969 q 561 976 528 976 q 704 900 700 976 l 749 -11 q 673 -96 750 -60 q 510 -132 596 -132 q 383 -49 379 -132 l 399 201 q 326 190 361 190 q 86 442 158 190 q 40 826 40 606 m 117 968 q 113 835 113 908 q 151 475 113 617 q 333 267 206 267 q 479 321 397 267 l 457 -54 l 675 -14 l 632 897 l 438 894 q 457 564 461 636 q 434 503 456 531 q 390 476 413 476 q 340 563 349 476 q 329 983 326 697 l 117 968 z "},"5":{"ha":672,"x_min":-94,"x_max":792,"o":"m 746 557 q 646 485 733 485 q 586 490 619 485 q 683 206 683 385 q 610 -58 683 53 q 393 -190 529 -181 q 83 -83 222 -204 q -65 151 -37 21 q 3 301 -94 285 q 86 324 24 307 q -64 665 -74 439 q -49 919 -60 774 q 119 1008 -43 1008 q 417 972 218 1008 q 713 918 674 924 q 792 793 792 908 q 769 643 792 732 q 746 557 758 600 m 701 829 l 42 913 q 25 663 36 844 q 65 474 21 556 q 253 329 124 367 q 374 257 331 307 q 410 163 410 213 q 340 79 410 85 q 253 254 240 85 l 18 213 q 228 -72 61 -1 q 386 -101 297 -103 q 540 3 483 -94 q 593 208 593 89 q 553 383 593 310 q 431 482 510 464 l 382 493 q 210 643 210 532 q 224 701 210 674 l 657 572 l 701 829 z "},"6":{"ha":754,"x_min":56,"x_max":879,"o":"m 879 190 q 757 -83 879 25 q 485 -185 642 -185 q 251 -106 353 -185 q 94 146 139 -19 q 56 464 56 292 q 146 886 56 724 q 476 1085 256 1085 q 781 922 667 1085 q 875 617 875 785 q 797 442 875 461 q 879 190 879 340 m 478 621 q 468 671 478 661 q 451 646 458 681 q 444 518 443 603 q 463 525 453 522 q 478 621 478 593 m 779 531 q 781 582 781 553 q 732 833 781 731 q 476 994 656 994 q 218 842 303 994 q 157 592 160 736 q 154 529 156 561 q 153 439 153 481 q 471 -89 153 -89 q 571 -78 518 -89 q 788 186 788 -31 q 772 297 788 244 q 582 460 713 460 q 375 368 490 460 l 361 429 q 354 543 354 485 q 467 763 354 765 q 567 625 567 760 q 551 510 567 571 l 779 531 m 606 165 q 554 86 607 107 q 483 76 521 72 q 431 118 453 81 q 410 186 410 151 q 450 261 410 228 q 524 294 486 292 q 606 165 604 299 m 521 169 q 517 197 519 186 q 506 190 510 193 q 508 167 507 181 q 521 169 515 167 z "},"7":{"ha":792,"x_min":58,"x_max":888,"o":"m 861 625 q 603 293 708 486 q 486 -112 483 76 q 358 -206 488 -206 q 161 -153 258 -206 q 67 -37 60 -99 q 193 313 88 122 q 415 622 283 472 l 90 575 l 76 642 q 67 704 72 672 q 58 821 58 769 q 154 994 58 992 q 329 1013 164 994 q 586 1029 486 1029 q 847 938 831 1029 q 888 718 888 804 q 861 625 888 650 m 800 692 l 758 921 l 157 904 l 167 644 q 604 708 285 663 q 400 482 488 597 q 157 -49 189 206 l 396 -114 q 443 149 401 19 q 800 692 542 457 m 76 642 z "},"8":{"ha":800,"x_min":72,"x_max":956,"o":"m 811 532 q 956 267 956 438 q 880 32 956 144 q 683 -128 804 -81 q 522 -157 606 -157 q 208 -36 344 -157 q 72 247 72 85 q 156 474 72 367 q 72 678 72 558 q 131 854 72 775 q 297 971 192 939 q 496 994 390 999 q 758 917 642 1004 q 875 704 875 829 q 811 532 875 615 m 847 361 q 653 501 794 467 q 783 703 783 604 q 769 764 783 733 q 497 904 697 914 q 324 883 394 906 q 167 675 151 832 q 301 494 182 515 q 163 247 163 381 q 174 175 163 211 q 318 -10 210 54 q 526 -64 411 -64 q 650 -43 597 -64 q 801 80 733 -11 q 868 267 868 171 q 847 361 868 317 m 600 699 q 606 678 606 692 q 581 614 606 646 q 501 568 550 576 q 472 565 486 565 q 365 682 390 565 q 364 696 364 689 q 503 760 364 760 q 556 740 526 760 q 600 699 585 721 m 689 294 q 704 243 704 274 q 601 122 704 151 q 526 110 557 110 q 408 213 447 110 q 400 254 400 236 q 440 322 400 296 q 514 356 449 328 q 549 363 529 363 q 628 342 586 363 q 689 294 669 321 z "},"9":{"ha":754,"x_min":57,"x_max":881,"o":"m 842 771 q 881 453 881 625 q 790 31 881 193 q 460 -168 681 -168 q 156 -6 269 -168 q 61 300 61 132 q 139 475 61 456 q 57 726 57 576 q 179 1000 57 892 q 451 1101 294 1101 q 685 1022 583 1101 q 842 771 797 936 m 779 325 q 782 388 781 356 q 783 478 783 436 q 465 1006 783 1006 q 365 994 418 1006 q 149 731 149 947 q 164 619 149 672 q 354 457 224 457 q 561 549 446 457 l 575 488 q 582 374 582 432 q 469 154 582 151 q 369 292 369 157 q 385 407 369 346 l 157 386 q 156 335 156 364 q 204 83 156 186 q 460 -78 281 -78 q 718 75 633 -78 q 779 325 776 181 m 492 399 q 474 392 483 394 q 458 296 458 324 q 468 246 458 256 q 485 271 478 236 q 492 399 493 314 m 524 750 q 526 731 526 740 q 488 657 526 689 q 413 622 450 625 q 331 751 332 618 q 382 832 329 810 q 453 840 415 844 q 524 750 503 835 m 431 726 q 428 750 429 736 q 415 747 421 750 q 419 719 417 731 q 431 726 426 724 z "}," ":{"ha":419,"x_min":0,"x_max":0,"o":""},"!":{"ha":468,"x_min":49,"x_max":578,"o":"m 542 354 q 538 326 542 339 q 578 213 578 276 q 525 58 578 136 q 386 -76 472 -21 q 342 -87 368 -87 q 164 3 257 -87 q 64 204 64 99 q 92 303 64 257 q 49 615 49 385 q 53 814 49 668 q 54 985 57 932 q 338 1106 50 1106 q 432 1103 378 1106 q 554 792 554 1113 q 547 567 554 725 q 542 354 540 421 m 451 353 l 439 1013 l 144 989 l 171 338 l 451 353 m 444 290 q 401 308 424 308 q 325 239 356 308 q 236 294 282 294 q 178 268 204 294 q 158 193 158 231 q 338 0 158 76 q 483 206 483 93 q 444 290 483 261 z "},"\"":{"ha":792,"x_min":156,"x_max":786,"o":"m 726 661 q 786 524 786 607 q 647 269 786 393 l 649 268 q 633 231 649 246 q 594 215 617 215 q 582 217 588 215 q 471 149 532 181 l 469 149 q 229 338 313 231 q 156 524 156 432 q 215 663 156 608 q 326 704 265 704 q 471 635 401 704 q 615 703 540 703 q 726 661 676 703 m 618 428 q 529 549 613 560 q 461 440 450 538 l 483 260 l 546 272 l 531 350 l 600 357 l 596 407 l 519 397 q 510 453 510 429 q 532 490 510 488 q 561 447 561 494 q 558 419 561 433 l 618 428 m 624 268 q 594 297 624 297 q 565 268 565 297 q 594 239 565 239 q 624 268 624 239 m 418 504 q 329 625 411 636 q 261 517 250 614 l 282 336 l 344 349 l 331 426 l 400 432 l 396 483 l 318 474 q 308 529 308 506 q 332 567 308 564 q 361 524 361 569 q 358 496 361 510 l 418 504 m 439 346 q 410 375 439 375 q 381 346 381 375 q 410 317 381 317 q 439 346 439 317 z "},"#":{"ha":874,"x_min":154,"x_max":872,"o":"m 796 692 q 872 515 872 622 q 729 249 872 365 q 697 195 724 217 q 636 174 671 174 q 522 107 593 143 l 501 107 q 240 311 333 194 q 154 526 154 421 q 229 693 154 625 q 368 747 292 747 q 513 690 443 747 q 656 746 582 746 q 796 692 733 746 m 768 661 q 657 703 718 703 q 513 635 582 703 q 368 704 443 704 q 257 663 307 704 q 197 524 197 608 q 271 338 197 432 q 511 149 354 231 l 513 149 q 624 217 574 181 q 636 215 629 215 q 674 231 658 215 q 690 268 690 246 l 689 269 q 828 524 828 393 q 768 661 828 607 m 660 428 l 600 419 q 603 447 603 433 q 574 490 603 494 q 551 453 551 488 q 561 397 551 429 l 638 407 l 642 357 l 572 350 l 588 272 l 525 260 l 503 440 q 571 549 492 538 q 660 428 654 560 m 665 268 q 636 239 665 239 q 607 268 607 239 q 636 297 607 297 q 665 268 665 297 m 460 504 l 400 496 q 403 524 403 510 q 374 567 403 569 q 350 529 350 564 q 360 474 350 506 l 438 483 l 442 432 l 372 426 l 386 349 l 324 336 l 303 517 q 371 625 292 614 q 460 504 453 635 m 481 346 q 451 317 481 317 q 422 346 422 317 q 451 375 422 375 q 481 346 481 375 z "},"$":{"ha":792,"x_min":156,"x_max":786,"o":"m 726 661 q 786 524 786 607 q 647 269 786 393 l 649 268 q 633 231 649 246 q 594 215 617 215 q 582 217 588 215 q 471 149 532 181 l 469 149 q 229 338 313 231 q 156 524 156 432 q 215 663 156 608 q 326 704 265 704 q 471 635 401 704 q 615 703 540 703 q 726 661 676 703 m 618 428 q 529 549 613 560 q 461 440 450 538 l 483 260 l 546 272 l 531 350 l 600 357 l 596 407 l 519 397 q 510 453 510 429 q 532 490 510 488 q 561 447 561 494 q 558 419 561 433 l 618 428 m 624 268 q 594 297 624 297 q 565 268 565 297 q 594 239 565 239 q 624 268 624 239 m 418 504 q 329 625 411 636 q 261 517 250 614 l 282 336 l 344 349 l 331 426 l 400 432 l 396 483 l 318 474 q 308 529 308 506 q 332 567 308 564 q 361 524 361 569 q 358 496 361 510 l 418 504 m 439 346 q 410 375 439 375 q 381 346 381 375 q 410 317 381 317 q 439 346 439 317 z "},"%":{"ha":874,"x_min":154,"x_max":872,"o":"m 796 692 q 872 515 872 622 q 729 249 872 365 q 697 195 724 217 q 636 174 671 174 q 522 107 593 143 l 501 107 q 240 311 333 194 q 154 526 154 421 q 229 693 154 625 q 368 747 292 747 q 513 690 443 747 q 656 746 582 746 q 796 692 733 746 m 768 661 q 657 703 718 703 q 513 635 582 703 q 368 704 443 704 q 257 663 307 704 q 197 524 197 608 q 271 338 197 432 q 511 149 354 231 l 513 149 q 624 217 574 181 q 636 215 629 215 q 674 231 658 215 q 690 268 690 246 l 689 269 q 828 524 828 393 q 768 661 828 607 m 660 428 l 600 419 q 603 447 603 433 q 574 490 603 494 q 551 453 551 488 q 561 397 551 429 l 638 407 l 642 357 l 572 350 l 588 272 l 525 260 l 503 440 q 571 549 492 538 q 660 428 654 560 m 665 268 q 636 239 665 239 q 607 268 607 239 q 636 297 607 297 q 665 268 665 297 m 460 504 l 400 496 q 403 524 403 510 q 374 567 403 569 q 350 529 350 564 q 360 474 350 506 l 438 483 l 442 432 l 372 426 l 386 349 l 324 336 l 303 517 q 371 625 292 614 q 460 504 453 635 m 481 346 q 451 317 481 317 q 422 346 422 317 q 451 375 422 375 q 481 346 481 375 z "},"&":{"ha":792,"x_min":156,"x_max":786,"o":"m 726 661 q 786 524 786 607 q 647 269 786 393 l 649 268 q 633 231 649 246 q 594 215 617 215 q 582 217 588 215 q 471 149 532 181 l 469 149 q 229 338 313 231 q 156 524 156 432 q 215 663 156 608 q 326 704 265 704 q 471 635 401 704 q 615 703 540 703 q 726 661 676 703 m 618 428 q 529 549 613 560 q 461 440 450 538 l 483 260 l 546 272 l 531 350 l 600 357 l 596 407 l 519 397 q 510 453 510 429 q 532 490 510 488 q 561 447 561 494 q 558 419 561 433 l 618 428 m 624 268 q 594 297 624 297 q 565 268 565 297 q 594 239 565 239 q 624 268 624 239 m 418 504 q 329 625 411 636 q 261 517 250 614 l 282 336 l 344 349 l 331 426 l 400 432 l 396 483 l 318 474 q 308 529 308 506 q 332 567 308 564 q 361 524 361 569 q 358 496 361 510 l 418 504 m 439 346 q 410 375 439 375 q 381 346 381 375 q 410 317 381 317 q 439 346 439 317 z "},"'":{"ha":444,"x_min":28,"x_max":571,"o":"m 497 964 q 571 813 571 894 q 508 660 571 736 q 357 536 450 590 q 318 528 340 528 q 165 601 249 528 q 57 767 82 674 q 103 954 28 874 q 129 976 107 960 q 224 1004 174 1004 q 304 983 267 1004 q 388 1008 342 1008 q 497 964 451 1008 m 435 900 q 389 919 414 919 q 313 854 346 919 q 224 914 271 914 q 167 892 192 914 q 143 811 143 851 q 313 615 143 699 q 478 811 478 710 q 435 900 478 860 z "},"(":{"ha":874,"x_min":154,"x_max":872,"o":"m 796 692 q 872 515 872 622 q 729 249 872 365 q 697 195 724 217 q 636 174 671 174 q 522 107 593 143 l 501 107 q 240 311 333 194 q 154 526 154 421 q 229 693 154 625 q 368 747 292 747 q 513 690 443 747 q 656 746 582 746 q 796 692 733 746 m 768 661 q 657 703 718 703 q 513 635 582 703 q 368 704 443 704 q 257 663 307 704 q 197 524 197 608 q 271 338 197 432 q 511 149 354 231 l 513 149 q 624 217 574 181 q 636 215 629 215 q 674 231 658 215 q 690 268 690 246 l 689 269 q 828 524 828 393 q 768 661 828 607 m 660 428 l 600 419 q 603 447 603 433 q 574 490 603 494 q 551 453 551 488 q 561 397 551 429 l 638 407 l 642 357 l 572 350 l 588 272 l 525 260 l 503 440 q 571 549 492 538 q 660 428 654 560 m 665 268 q 636 239 665 239 q 607 268 607 239 q 636 297 607 297 q 665 268 665 297 m 460 504 l 400 496 q 403 524 403 510 q 374 567 403 569 q 350 529 350 564 q 360 474 350 506 l 438 483 l 442 432 l 372 426 l 386 349 l 324 336 l 303 517 q 371 625 292 614 q 460 504 453 635 m 481 346 q 451 317 481 317 q 422 346 422 317 q 451 375 422 375 q 481 346 481 375 z "},")":{"ha":792,"x_min":156,"x_max":786,"o":"m 726 661 q 786 524 786 607 q 647 269 786 393 l 649 268 q 633 231 649 246 q 594 215 617 215 q 582 217 588 215 q 471 149 532 181 l 469 149 q 229 338 313 231 q 156 524 156 432 q 215 663 156 608 q 326 704 265 704 q 471 635 401 704 q 615 703 540 703 q 726 661 676 703 m 618 428 q 529 549 613 560 q 461 440 450 538 l 483 260 l 546 272 l 531 350 l 600 357 l 596 407 l 519 397 q 510 453 510 429 q 532 490 510 488 q 561 447 561 494 q 558 419 561 433 l 618 428 m 624 268 q 594 297 624 297 q 565 268 565 297 q 594 239 565 239 q 624 268 624 239 m 418 504 q 329 625 411 636 q 261 517 250 614 l 282 336 l 344 349 l 331 426 l 400 432 l 396 483 l 318 474 q 308 529 308 506 q 332 567 308 564 q 361 524 361 569 q 358 496 361 510 l 418 504 m 439 346 q 410 375 439 375 q 381 346 381 375 q 410 317 381 317 q 439 346 439 317 z "},"*":{"ha":874,"x_min":154,"x_max":872,"o":"m 796 692 q 872 515 872 622 q 729 249 872 365 q 697 195 724 217 q 636 174 671 174 q 522 107 593 143 l 501 107 q 240 311 333 194 q 154 526 154 421 q 229 693 154 625 q 368 747 292 747 q 513 690 443 747 q 656 746 582 746 q 796 692 733 746 m 768 661 q 657 703 718 703 q 513 635 582 703 q 368 704 443 704 q 257 663 307 704 q 197 524 197 608 q 271 338 197 432 q 511 149 354 231 l 513 149 q 624 217 574 181 q 636 215 629 215 q 674 231 658 215 q 690 268 690 246 l 689 269 q 828 524 828 393 q 768 661 828 607 m 660 428 l 600 419 q 603 447 603 433 q 574 490 603 494 q 551 453 551 488 q 561 397 551 429 l 638 407 l 642 357 l 572 350 l 588 272 l 525 260 l 503 440 q 571 549 492 538 q 660 428 654 560 m 665 268 q 636 239 665 239 q 607 268 607 239 q 636 297 607 297 q 665 268 665 297 m 460 504 l 400 496 q 403 524 403 510 q 374 567 403 569 q 350 529 350 564 q 360 474 350 506 l 438 483 l 442 432 l 372 426 l 386 349 l 324 336 l 303 517 q 371 625 292 614 q 460 504 453 635 m 481 346 q 451 317 481 317 q 422 346 422 317 q 451 375 422 375 q 481 346 481 375 z "},"+":{"ha":792,"x_min":156,"x_max":786,"o":"m 726 661 q 786 524 786 607 q 647 269 786 393 l 649 268 q 633 231 649 246 q 594 215 617 215 q 582 217 588 215 q 471 149 532 181 l 469 149 q 229 338 313 231 q 156 524 156 432 q 215 663 156 608 q 326 704 265 704 q 471 635 401 704 q 615 703 540 703 q 726 661 676 703 m 618 428 q 529 549 613 560 q 461 440 450 538 l 483 260 l 546 272 l 531 350 l 600 357 l 596 407 l 519 397 q 510 453 510 429 q 532 490 510 488 q 561 447 561 494 q 558 419 561 433 l 618 428 m 624 268 q 594 297 624 297 q 565 268 565 297 q 594 239 565 239 q 624 268 624 239 m 418 504 q 329 625 411 636 q 261 517 250 614 l 282 336 l 344 349 l 331 426 l 400 432 l 396 483 l 318 474 q 308 529 308 506 q 332 567 308 564 q 361 524 361 569 q 358 496 361 510 l 418 504 m 439 346 q 410 375 439 375 q 381 346 381 375 q 410 317 381 317 q 439 346 439 317 z "},",":{"ha":476,"x_min":40,"x_max":578,"o":"m 503 360 q 578 213 578 301 q 525 58 578 136 q 386 -76 472 -21 q 342 -87 368 -87 q 189 -19 272 -87 q 74 140 101 51 q 110 328 40 244 q 136 351 114 333 q 238 385 182 385 q 311 367 275 385 q 403 399 350 399 q 503 360 463 399 m 444 290 q 401 308 424 308 q 325 239 356 308 q 236 294 282 294 q 178 268 204 294 q 158 193 158 231 q 338 0 158 76 q 483 206 483 93 q 444 290 483 261 z "},"-":{"ha":444,"x_min":32,"x_max":551,"o":"m 494 700 q 551 560 551 631 q 479 403 551 478 q 310 289 414 335 q 281 283 296 283 q 119 379 204 283 q 32 585 32 481 q 100 731 32 671 q 129 750 106 736 q 208 769 167 769 q 304 739 260 769 q 374 756 336 756 q 494 700 446 756 m 425 642 q 375 667 403 667 q 299 610 335 667 q 208 679 260 679 q 157 661 181 679 q 124 571 124 617 q 274 372 124 464 q 458 560 458 453 q 425 642 458 603 z "},"‐":{"ha":444,"x_min":32,"x_max":551,"o":"m 494 700 q 551 560 551 631 q 479 403 551 478 q 310 289 414 335 q 281 283 296 283 q 119 379 204 283 q 32 585 32 481 q 100 731 32 671 q 129 750 106 736 q 208 769 167 769 q 304 739 260 769 q 374 756 336 756 q 494 700 446 756 m 425 642 q 375 667 403 667 q 299 610 335 667 q 208 679 260 679 q 157 661 181 679 q 124 571 124 617 q 274 372 124 464 q 458 560 458 453 q 425 642 458 603 z "},".":{"ha":476,"x_min":40,"x_max":578,"o":"m 503 360 q 578 213 578 301 q 525 58 578 136 q 386 -76 472 -21 q 342 -87 368 -87 q 189 -19 272 -87 q 74 140 101 51 q 110 328 40 244 q 136 351 114 333 q 238 385 182 385 q 311 367 275 385 q 403 399 350 399 q 503 360 463 399 m 444 290 q 401 308 424 308 q 325 239 356 308 q 236 294 282 294 q 178 268 204 294 q 158 193 158 231 q 338 0 158 76 q 483 206 483 93 q 444 290 483 261 z "},"/":{"ha":874,"x_min":154,"x_max":872,"o":"m 796 692 q 872 515 872 622 q 729 249 872 365 q 697 195 724 217 q 636 174 671 174 q 522 107 593 143 l 501 107 q 240 311 333 194 q 154 526 154 421 q 229 693 154 625 q 368 747 292 747 q 513 690 443 747 q 656 746 582 746 q 796 692 733 746 m 768 661 q 657 703 718 703 q 513 635 582 703 q 368 704 443 704 q 257 663 307 704 q 197 524 197 608 q 271 338 197 432 q 511 149 354 231 l 513 149 q 624 217 574 181 q 636 215 629 215 q 674 231 658 215 q 690 268 690 246 l 689 269 q 828 524 828 393 q 768 661 828 607 m 660 428 l 600 419 q 603 447 603 433 q 574 490 603 494 q 551 453 551 488 q 561 397 551 429 l 638 407 l 642 357 l 572 350 l 588 272 l 525 260 l 503 440 q 571 549 492 538 q 660 428 654 560 m 665 268 q 636 239 665 239 q 607 268 607 239 q 636 297 607 297 q 665 268 665 297 m 460 504 l 400 496 q 403 524 403 510 q 374 567 403 569 q 350 529 350 564 q 360 474 350 506 l 438 483 l 442 432 l 372 426 l 386 349 l 324 336 l 303 517 q 371 625 292 614 q 460 504 453 635 m 481 346 q 451 317 481 317 q 422 346 422 317 q 451 375 422 375 q 481 346 481 375 z "},":":{"ha":476,"x_min":40,"x_max":590,"o":"m 536 739 q 590 611 590 682 q 457 389 590 490 q 503 360 483 378 q 578 213 578 301 q 525 58 578 136 q 386 -76 472 -21 q 342 -87 368 -87 q 189 -19 272 -87 q 74 140 101 51 q 110 328 40 244 q 136 351 114 333 q 200 381 165 372 q 75 624 75 490 q 143 769 75 710 q 172 788 149 774 q 251 807 211 807 q 347 776 304 807 q 419 794 381 794 q 536 739 493 794 m 468 681 q 419 704 446 704 q 342 647 379 704 q 251 717 304 717 q 200 699 224 717 q 168 608 168 656 q 317 410 168 503 q 453 507 406 449 q 494 610 494 557 q 468 681 494 651 m 444 290 q 401 308 424 308 q 325 239 356 308 q 236 294 282 294 q 178 268 204 294 q 158 193 158 231 q 338 0 158 76 q 483 206 483 93 q 444 290 483 261 z "},";":{"ha":476,"x_min":40,"x_max":590,"o":"m 536 739 q 590 611 590 682 q 457 389 590 490 q 503 360 483 378 q 578 213 578 301 q 525 58 578 136 q 386 -76 472 -21 q 342 -87 368 -87 q 189 -19 272 -87 q 74 140 101 51 q 110 328 40 244 q 136 351 114 333 q 200 381 165 372 q 75 624 75 490 q 143 769 75 710 q 172 788 149 774 q 251 807 211 807 q 347 776 304 807 q 419 794 381 794 q 536 739 493 794 m 468 681 q 419 704 446 704 q 342 647 379 704 q 251 717 304 717 q 200 699 224 717 q 168 608 168 656 q 317 410 168 503 q 453 507 406 449 q 494 610 494 557 q 468 681 494 651 m 444 290 q 401 308 424 308 q 325 239 356 308 q 236 294 282 294 q 178 268 204 294 q 158 193 158 231 q 338 0 158 76 q 483 206 483 93 q 444 290 483 261 z "},"<":{"ha":792,"x_min":156,"x_max":786,"o":"m 726 661 q 786 524 786 607 q 647 269 786 393 l 649 268 q 633 231 649 246 q 594 215 617 215 q 582 217 588 215 q 471 149 532 181 l 469 149 q 229 338 313 231 q 156 524 156 432 q 215 663 156 608 q 326 704 265 704 q 471 635 401 704 q 615 703 540 703 q 726 661 676 703 m 618 428 q 529 549 613 560 q 461 440 450 538 l 483 260 l 546 272 l 531 350 l 600 357 l 596 407 l 519 397 q 510 453 510 429 q 532 490 510 488 q 561 447 561 494 q 558 419 561 433 l 618 428 m 624 268 q 594 297 624 297 q 565 268 565 297 q 594 239 565 239 q 624 268 624 239 m 418 504 q 329 625 411 636 q 261 517 250 614 l 282 336 l 344 349 l 331 426 l 400 432 l 396 483 l 318 474 q 308 529 308 506 q 332 567 308 564 q 361 524 361 569 q 358 496 361 510 l 418 504 m 439 346 q 410 375 439 375 q 381 346 381 375 q 410 317 381 317 q 439 346 439 317 z "},"=":{"ha":874,"x_min":154,"x_max":872,"o":"m 796 692 q 872 515 872 622 q 729 249 872 365 q 697 195 724 217 q 636 174 671 174 q 522 107 593 143 l 501 107 q 240 311 333 194 q 154 526 154 421 q 229 693 154 625 q 368 747 292 747 q 513 690 443 747 q 656 746 582 746 q 796 692 733 746 m 768 661 q 657 703 718 703 q 513 635 582 703 q 368 704 443 704 q 257 663 307 704 q 197 524 197 608 q 271 338 197 432 q 511 149 354 231 l 513 149 q 624 217 574 181 q 636 215 629 215 q 674 231 658 215 q 690 268 690 246 l 689 269 q 828 524 828 393 q 768 661 828 607 m 660 428 l 600 419 q 603 447 603 433 q 574 490 603 494 q 551 453 551 488 q 561 397 551 429 l 638 407 l 642 357 l 572 350 l 588 272 l 525 260 l 503 440 q 571 549 492 538 q 660 428 654 560 m 665 268 q 636 239 665 239 q 607 268 607 239 q 636 297 607 297 q 665 268 665 297 m 460 504 l 400 496 q 403 524 403 510 q 374 567 403 569 q 350 529 350 564 q 360 474 350 506 l 438 483 l 442 432 l 372 426 l 386 349 l 324 336 l 303 517 q 371 625 292 614 q 460 504 453 635 m 481 346 q 451 317 481 317 q 422 346 422 317 q 451 375 422 375 q 481 346 481 375 z "},">":{"ha":792,"x_min":156,"x_max":786,"o":"m 726 661 q 786 524 786 607 q 647 269 786 393 l 649 268 q 633 231 649 246 q 594 215 617 215 q 582 217 588 215 q 471 149 532 181 l 469 149 q 229 338 313 231 q 156 524 156 432 q 215 663 156 608 q 326 704 265 704 q 471 635 401 704 q 615 703 540 703 q 726 661 676 703 m 618 428 q 529 549 613 560 q 461 440 450 538 l 483 260 l 546 272 l 531 350 l 600 357 l 596 407 l 519 397 q 510 453 510 429 q 532 490 510 488 q 561 447 561 494 q 558 419 561 433 l 618 428 m 624 268 q 594 297 624 297 q 565 268 565 297 q 594 239 565 239 q 624 268 624 239 m 418 504 q 329 625 411 636 q 261 517 250 614 l 282 336 l 344 349 l 331 426 l 400 432 l 396 483 l 318 474 q 308 529 308 506 q 332 567 308 564 q 361 524 361 569 q 358 496 361 510 l 418 504 m 439 346 q 410 375 439 375 q 381 346 381 375 q 410 317 381 317 q 439 346 439 317 z "},"?":{"ha":792,"x_min":33,"x_max":906,"o":"m 904 721 q 906 683 906 701 q 782 457 906 547 q 533 356 686 388 q 529 331 533 343 q 585 200 585 276 q 386 -76 585 51 q 343 -86 369 -86 q 200 -33 276 -86 q 83 104 115 24 q 94 299 43 201 l 104 314 l 106 315 q 101 335 101 325 q 71 596 71 558 q 82 653 71 635 q 44 808 53 703 q 40 924 43 865 q 139 1038 33 990 q 392 1085 244 1085 q 719 1003 583 1085 q 904 721 881 907 m 446 976 q 131 933 311 976 l 157 700 q 501 767 375 767 q 614 710 614 767 q 157 599 614 613 l 190 346 l 443 353 l 439 432 q 628 476 549 447 q 815 685 815 549 q 700 911 815 835 q 446 976 603 976 m 463 272 q 446 286 463 272 q 397 300 429 300 q 325 239 353 300 q 242 290 285 290 q 175 257 204 290 q 156 183 156 219 q 338 0 156 69 q 496 201 496 101 q 463 272 496 244 z "},"@":{"ha":1417,"x_min":61,"x_max":876,"o":"m 785 838 q 876 636 876 753 q 778 391 876 515 q 510 178 679 267 q 468 167 490 167 q 169 390 276 263 q 61 642 61 518 q 151 839 61 756 q 188 864 158 844 q 324 903 251 903 q 468 860 400 903 q 615 901 535 901 q 785 838 717 901 m 724 771 q 613 813 674 813 q 468 744 538 813 q 324 813 399 813 q 213 772 263 813 q 153 633 153 718 q 226 446 153 540 q 467 257 310 340 l 468 257 q 708 446 626 340 q 783 633 783 540 q 724 771 783 717 z "},"A":{"ha":668,"x_min":-22,"x_max":885,"o":"m 808 -83 q 561 -110 767 -92 q 472 -53 503 -117 q 443 79 450 -6 q 438 176 440 128 l 411 174 q 374 -57 382 -31 q 286 -115 354 -115 q 58 -86 267 -115 q -22 58 -22 -76 q 86 546 -22 213 q 222 953 154 750 q 304 1021 233 994 q 453 1044 369 1044 q 646 964 626 1044 q 768 613 707 789 q 885 74 885 250 q 808 -83 885 -69 m 792 6 l 558 942 l 310 931 l 69 3 l 292 -28 l 331 260 l 517 271 l 554 -19 q 792 6 651 -11 m 500 413 l 344 411 l 413 665 l 500 413 z "},"B":{"ha":701,"x_min":67,"x_max":882,"o":"m 882 254 q 746 -35 882 61 q 481 -118 643 -108 q 410 -121 450 -121 q 67 4 67 -121 l 67 908 q 369 1028 67 1028 q 435 1026 407 1028 q 671 943 581 1015 q 790 671 790 850 q 758 536 790 596 q 882 254 882 433 m 792 254 q 621 514 792 444 q 700 671 700 569 q 381 938 700 938 q 157 908 271 938 l 157 4 q 424 -31 294 -31 q 792 254 792 -31 m 549 658 q 381 560 544 560 q 347 561 363 560 l 354 739 q 436 749 396 749 q 549 658 553 749 m 608 276 q 400 156 600 156 q 349 158 372 156 l 354 415 q 400 417 375 417 q 608 276 619 417 m 518 283 q 443 325 521 315 l 440 247 q 518 283 517 256 z "},"C":{"ha":768,"x_min":1,"x_max":953,"o":"m 947 257 q 944 251 947 257 q 919 196 942 244 q 746 -35 846 51 q 482 -140 625 -140 q 125 14 256 -140 q 3 381 4 157 q 79 815 1 640 q 418 1051 186 1051 q 774 919 632 1051 q 896 686 896 808 q 839 590 896 610 q 704 533 771 561 q 575 499 621 499 q 478 617 488 499 q 460 699 474 668 q 385 446 385 603 q 407 307 385 365 q 461 249 429 249 q 564 408 515 249 q 665 468 582 468 q 855 408 757 468 q 953 285 953 349 q 947 257 953 269 m 863 289 l 650 382 q 604 274 629 318 q 482 164 546 165 q 336 243 385 163 q 293 428 293 313 q 342 671 293 558 q 457 796 392 789 q 569 590 561 807 l 808 675 q 747 818 792 758 q 418 961 642 961 q 121 671 194 961 q 93 381 90 550 q 133 165 96 256 q 482 -50 225 -50 q 767 119 639 -50 q 863 289 819 190 z "},"D":{"ha":742,"x_min":67,"x_max":900,"o":"m 882 425 q 753 78 875 210 q 492 -71 653 -28 q 257 -100 379 -100 q 67 0 67 -100 l 67 904 q 133 988 67 956 q 265 1025 182 1011 q 366 1038 315 1031 q 464 1044 417 1044 q 882 425 900 1044 m 792 428 q 467 954 807 954 q 379 947 426 954 q 157 904 239 926 l 157 0 q 268 -7 207 -7 q 593 67 464 -7 q 792 428 785 175 m 610 488 q 500 253 606 333 q 354 189 438 203 l 351 707 q 447 725 400 725 q 610 488 617 725 m 519 490 q 481 628 524 606 q 442 635 467 636 l 443 324 q 519 490 517 381 z "},"E":{"ha":761,"x_min":39,"x_max":885,"o":"m 801 429 l 404 389 q 468 351 413 351 q 511 354 482 351 q 554 357 540 357 q 622 297 622 357 q 615 250 622 278 q 571 36 593 143 q 463 -100 532 -97 q 140 43 254 -111 q 39 396 39 178 q 154 825 39 639 q 468 1028 279 1028 q 643 983 553 1028 q 818 799 747 932 q 885 561 885 674 q 801 429 885 439 m 792 519 q 464 932 764 932 q 372 924 426 932 q 190 769 257 906 q 129 472 129 644 q 210 135 129 271 q 458 -10 301 -18 l 528 272 q 442 254 479 254 q 311 438 311 254 q 313 469 311 456 l 792 519 m 589 647 l 335 618 q 443 763 347 754 q 589 647 564 771 z "},"F":{"ha":647,"x_min":67,"x_max":749,"o":"m 740 924 q 749 832 749 917 q 618 601 749 613 q 621 433 618 554 q 567 351 622 374 q 464 333 539 340 q 483 157 469 281 q 493 44 493 76 q 429 -56 493 -35 q 167 -90 399 -65 q 96 -68 125 -94 q 67 0 67 -42 l 69 900 q 294 1007 69 1007 q 363 1004 324 1007 q 401 1003 397 1003 l 640 1015 q 739 988 678 1017 l 740 924 m 663 696 q 650 925 656 810 q 160 900 518 918 l 157 0 l 403 26 l 365 415 l 531 431 l 525 608 l 356 590 l 340 679 l 663 696 z "},"G":{"ha":697,"x_min":49,"x_max":878,"o":"m 814 239 q 683 -90 803 32 q 425 -200 575 -200 q 201 -117 297 -200 q 71 133 97 -25 q 72 407 49 272 q 122 465 78 442 q 50 668 50 560 q 68 771 50 721 q 382 1024 158 1024 q 475 1011 426 1024 q 559 1055 497 1038 q 689 1072 621 1072 q 821 1047 771 1072 q 874 961 878 1018 l 814 239 m 725 243 q 783 969 732 364 l 543 954 l 547 889 q 382 933 458 933 q 153 740 222 933 q 140 668 140 706 q 207 501 140 574 q 394 410 279 424 q 442 407 419 407 q 571 446 521 407 l 571 443 q 561 271 574 342 q 436 107 533 101 q 351 219 351 111 q 385 382 351 290 l 161 390 q 151 263 151 331 q 197 29 151 119 q 407 -106 261 -99 q 661 17 581 -112 q 725 243 717 103 m 478 322 q 458 318 468 321 l 458 315 q 442 218 442 257 q 444 192 442 200 q 478 322 468 190 m 554 592 q 444 569 496 569 q 343 647 356 569 q 342 665 342 657 q 546 786 342 775 l 554 592 m 461 661 l 461 681 q 432 663 431 669 q 451 660 449 660 q 461 661 456 660 z "},"H":{"ha":792,"x_min":10,"x_max":888,"o":"m 888 74 q 872 -133 888 -92 q 779 -194 854 -185 q 535 -210 657 -203 q 467 -185 496 -212 q 439 -118 439 -158 l 439 -90 q 396 -101 422 -100 q 340 -107 369 -103 q 243 -112 285 -112 q 67 -18 71 -112 l 13 1107 q 108 1213 10 1167 q 307 1257 201 1257 q 463 1154 468 1257 l 444 844 q 533 858 492 858 q 829 547 740 858 q 888 74 888 347 m 792 -101 q 797 63 797 -28 q 750 507 797 332 q 525 764 682 764 q 344 697 446 764 l 372 1160 l 103 1111 l 157 -14 l 396 -10 q 372 397 367 308 q 401 472 375 439 q 456 506 426 506 q 517 400 506 506 q 529 -119 533 232 l 792 -101 z "},"I":{"ha":410,"x_min":67,"x_max":515,"o":"m 514 933 l 485 -17 q 428 -93 483 -65 q 301 -117 378 -117 q 149 -86 214 -117 q 76 -1 76 -54 l 67 903 q 156 1000 67 960 q 338 1036 238 1036 q 463 1013 415 1036 q 514 933 515 985 m 424 936 l 157 904 l 167 0 l 394 -14 l 424 936 z "},"J":{"ha":754,"x_min":57,"x_max":883,"o":"m 882 936 l 869 324 q 768 -14 865 121 q 460 -168 656 -168 q 147 8 256 -168 q 57 368 57 156 q 60 435 57 401 q 142 518 64 485 q 301 550 213 550 q 418 526 374 550 q 468 451 468 500 q 462 388 468 431 q 456 324 456 346 q 471 244 456 244 q 492 376 492 244 q 486 475 492 432 q 444 732 474 569 q 425 883 425 843 q 499 985 425 960 q 781 1028 538 997 q 853 1006 824 1032 q 882 936 883 979 m 792 938 l 521 904 l 575 488 q 582 374 582 432 q 469 154 582 151 q 365 325 365 157 q 378 449 365 385 l 150 428 q 174 175 146 281 q 460 -78 242 -78 q 718 75 633 -78 q 779 325 776 181 l 792 938 z "},"K":{"ha":831,"x_min":67,"x_max":1008,"o":"m 924 881 q 796 461 922 617 q 928 226 854 399 q 1008 -83 1008 35 q 917 -204 1008 -203 l 599 -208 q 524 -167 546 -208 q 507 -64 507 -135 q 509 10 507 -40 q 511 86 511 60 q 489 236 511 182 q 492 188 489 233 q 496 107 496 143 q 393 -90 496 -90 l 157 -90 q 94 -63 121 -90 q 67 0 67 -36 l 67 904 q 146 994 67 958 q 313 1026 217 1026 q 500 944 474 1026 l 500 946 q 631 1028 499 1028 q 824 983 729 1028 q 924 881 924 938 m 503 908 l 496 694 q 522 783 522 736 q 514 846 522 808 q 503 908 503 901 m 915 -114 q 663 457 865 325 q 833 881 831 588 l 592 935 q 610 794 610 865 q 401 553 610 560 l 413 921 l 157 904 l 157 0 l 393 0 l 401 364 q 449 371 426 371 q 607 35 607 371 q 597 -118 607 -44 l 915 -114 z "},"L":{"ha":594,"x_min":32,"x_max":706,"o":"m 701 28 q 592 -75 706 -46 q 354 -93 510 -94 q 161 -90 129 -92 q 32 285 32 -96 q 53 667 32 436 q 75 906 75 899 q 150 993 75 957 q 307 1026 219 1026 q 419 1003 376 1026 q 468 926 468 976 l 461 357 q 571 365 533 365 q 664 338 642 365 q 692 233 686 311 q 701 28 696 131 m 611 21 l 593 281 l 369 257 l 378 928 l 165 904 l 157 0 l 611 21 z "},"M":{"ha":1349,"x_min":65,"x_max":1451,"o":"m 1447 -10 q 1364 -110 1451 -71 q 1178 -146 1283 -146 q 1047 -124 1100 -146 q 981 -56 989 -100 l 981 -67 q 926 -143 981 -117 q 800 -168 879 -168 q 604 -125 690 -168 q 522 -14 510 -79 l 600 390 q 617 544 617 479 q 578 651 617 651 q 524 597 553 651 q 474 433 493 536 q 471 381 471 408 q 493 186 471 313 q 517 -8 515 54 q 433 -106 518 -65 q 258 -142 354 -142 q 92 -46 94 -142 l 67 901 q 133 988 65 958 q 275 1013 190 1013 q 397 992 360 1013 q 574 1031 479 1031 q 799 964 701 1031 q 1021 1035 893 1035 q 1378 818 1278 1035 q 1449 361 1449 665 q 1447 213 1449 308 q 1444 79 1444 118 q 1447 -10 1444 26 m 1040 633 q 981 18 981 515 q 1035 393 988 163 q 1049 533 1047 451 q 1040 633 1049 611 m 1357 -17 q 1347 283 1347 125 q 1356 539 1347 421 q 1290 790 1364 669 q 1021 944 1197 944 q 803 842 885 944 q 574 940 714 940 q 361 860 453 940 l 357 913 l 157 904 l 182 -43 l 426 -11 q 403 160 425 21 q 381 379 381 294 q 383 446 381 414 q 428 590 401 531 q 589 738 492 735 q 699 513 699 740 q 689 375 699 443 l 611 -31 l 890 -67 q 914 496 890 283 q 1036 729 940 729 q 1139 535 1139 729 q 1124 376 1139 458 q 1069 -40 1069 126 l 1357 -17 z "},"N":{"ha":924,"x_min":64,"x_max":1022,"o":"m 1021 -44 q 942 -139 1022 -101 q 771 -174 867 -174 q 649 -149 696 -174 q 596 -72 596 -122 l 599 376 q 590 546 600 468 q 569 644 582 611 q 481 378 481 622 q 494 147 481 281 q 514 -3 504 72 q 436 -104 519 -62 q 265 -143 360 -143 q 107 -50 111 -143 l 67 900 q 147 996 64 960 q 310 1028 219 1028 q 419 1001 392 1028 q 574 1031 492 1031 q 918 836 801 1031 q 1004 542 1000 700 q 1021 -44 1007 422 m 931 -47 l 914 540 q 842 789 911 676 q 574 940 749 940 q 364 863 454 940 l 358 935 l 157 904 l 197 -46 l 424 -12 q 393 438 392 299 q 424 614 393 540 q 589 738 472 735 q 681 557 658 739 q 689 375 689 482 l 686 -72 l 931 -47 z "},"O":{"ha":821,"x_min":43,"x_max":949,"o":"m 547 -103 q 492 -107 519 -107 q 157 81 282 -107 q 43 485 43 249 q 126 822 43 681 q 378 1007 217 978 q 449 1013 414 1013 q 810 807 661 1013 q 949 374 949 615 q 854 61 949 186 q 547 -103 749 -79 m 835 525 q 686 822 801 713 q 446 922 579 922 q 210 792 296 922 q 133 518 133 676 q 143 407 133 464 q 243 107 179 204 q 482 -17 328 -17 q 536 -14 508 -17 q 853 346 853 24 q 835 525 853 424 m 585 532 q 553 544 571 544 q 497 493 519 544 q 432 535 467 535 q 389 515 408 535 q 375 460 375 486 q 507 318 375 374 q 614 469 614 386 q 585 532 614 510 m 481 146 q 344 247 389 154 q 299 426 319 300 q 292 503 292 465 q 439 756 292 699 l 451 760 q 596 696 524 771 q 708 410 708 581 q 650 219 708 293 q 481 146 588 138 z "},"P":{"ha":814,"x_min":69,"x_max":943,"o":"m 943 564 q 826 214 942 347 q 481 58 704 74 q 483 0 483 25 q 453 -117 483 -87 q 353 -146 428 -143 q 167 -150 260 -149 q 99 -126 128 -153 q 71 -61 71 -99 l 69 932 q 149 1022 69 989 q 339 1054 222 1054 q 721 960 553 1054 q 938 656 921 849 q 943 564 943 588 m 847 646 q 783 799 833 735 q 378 951 663 951 q 160 932 278 951 l 161 -60 l 397 -47 l 385 147 q 775 294 658 133 q 853 567 853 401 q 847 646 853 611 m 672 569 q 636 449 667 499 q 374 335 563 329 l 372 758 q 424 761 399 761 q 631 688 567 761 q 672 569 678 636 m 582 572 q 463 669 586 657 l 464 433 q 582 572 578 460 z "},"Q":{"ha":821,"x_min":58,"x_max":1146,"o":"m 1046 44 q 1117 -99 1081 -26 q 1146 -187 1146 -158 q 1108 -251 1146 -224 q 975 -317 1071 -278 q 831 -346 901 -346 q 467 -106 624 -346 q 178 68 297 -92 q 58 435 58 228 q 117 817 58 701 q 447 994 203 988 q 924 468 924 1010 q 797 56 924 221 q 889 64 831 33 q 981 100 961 100 q 1046 44 1019 100 m 1054 -186 l 964 7 q 825 -50 894 -50 q 681 56 736 -50 l 679 60 q 833 468 833 201 q 758 786 833 683 q 450 904 668 911 q 190 763 253 899 q 149 435 149 672 q 257 113 149 249 q 496 -17 361 -17 q 518 -15 507 -17 q 832 -254 654 -254 q 942 -232 885 -254 l 1054 -186 m 663 443 q 597 240 656 321 q 547 388 564 324 l 385 338 q 419 213 390 311 q 326 443 328 283 q 353 650 325 590 q 469 722 385 719 q 614 645 558 725 q 663 443 669 565 m 574 475 q 536 599 572 556 q 472 632 507 633 q 435 613 443 631 q 417 443 415 569 l 417 442 q 476 463 446 453 q 549 478 521 478 q 574 475 563 478 z "},"R":{"ha":739,"x_min":42,"x_max":929,"o":"m 836 -237 l 592 -254 q 496 -122 496 -261 q 499 -37 496 -97 q 503 54 503 24 q 451 244 503 185 q 461 42 461 42 q 438 -53 461 -29 q 343 -85 415 -78 q 138 -97 240 -92 q 70 -73 99 -100 q 42 -7 42 -46 l 42 917 q 132 1015 42 976 q 349 1053 222 1053 q 669 971 539 1053 q 817 693 824 874 q 751 440 825 547 q 871 214 814 375 q 929 -79 929 46 q 836 -237 929 -231 m 831 -147 q 763 263 828 117 q 618 433 715 368 q 726 693 735 510 q 694 822 726 768 q 397 953 618 953 q 132 917 282 953 l 132 -7 l 372 8 l 356 354 q 408 361 383 361 q 594 -8 594 361 q 586 -164 594 -89 l 831 -147 m 563 710 q 399 521 567 521 q 336 528 369 521 l 325 790 q 385 793 357 793 q 563 710 553 793 m 474 694 q 419 703 458 701 l 422 615 q 474 694 476 629 z "},"S":{"ha":693,"x_min":-71,"x_max":819,"o":"m 789 165 q 669 -76 785 35 q 381 -192 544 -196 q 107 -79 274 -189 q -71 135 -71 39 q -50 190 -71 165 q 4 264 -22 226 q 114 379 65 340 q 43 638 43 486 q 114 892 43 786 q 331 1021 193 1010 q 640 915 500 1036 q 790 679 761 811 q 722 529 819 546 q 639 507 701 524 q 789 165 799 392 m 707 618 q 497 903 664 832 q 339 932 428 933 q 185 831 243 925 q 133 626 133 744 q 172 451 133 526 q 294 349 217 369 q 456 272 399 321 q 506 186 506 231 q 474 129 506 151 q 388 108 442 107 q 313 132 347 111 q 183 319 229 182 l 18 131 q 383 -101 233 -97 q 607 -11 508 -104 q 700 168 696 75 q 660 357 704 275 q 472 501 601 464 q 351 574 394 524 q 315 668 315 618 q 385 751 315 746 q 472 576 485 746 l 707 618 z "},"T":{"ha":736,"x_min":25,"x_max":872,"o":"m 867 915 l 854 669 q 740 585 850 585 q 651 592 743 585 q 657 419 650 551 q 665 201 665 278 q 551 -118 665 -115 q 488 -128 519 -124 q 374 -136 424 -136 q 199 -32 193 -136 l 232 569 q 133 558 151 558 q 36 647 35 558 q 31 698 36 643 q 25 800 25 753 q 131 1015 25 1015 q 349 1023 193 1014 q 579 1032 504 1032 q 867 915 872 1032 m 776 919 l 131 925 l 126 646 l 329 674 l 289 -37 l 549 -28 l 563 689 l 764 675 l 776 919 z "},"U":{"ha":800,"x_min":19,"x_max":913,"o":"m 901 447 q 800 74 876 215 q 493 -128 693 -128 q 115 114 236 -128 q 19 613 19 304 q 44 917 19 769 q 124 992 51 963 q 275 1017 189 1017 q 451 968 397 1017 q 550 1033 476 1010 q 700 1057 619 1057 q 835 1033 781 1057 q 900 963 896 1008 q 913 690 913 835 q 901 447 913 560 m 468 307 q 500 463 500 344 q 464 800 500 594 q 436 475 436 606 q 468 307 436 339 m 811 953 l 531 929 q 589 478 589 661 q 472 219 589 228 q 346 497 346 210 q 389 908 346 665 l 133 903 q 111 606 111 758 q 182 181 111 342 q 493 -37 278 -37 q 764 217 682 -37 q 824 692 824 399 q 811 953 824 829 z "},"V":{"ha":750,"x_min":38,"x_max":881,"o":"m 801 913 q 881 796 881 903 q 790 429 881 690 q 635 -25 643 3 q 562 -88 624 -64 q 426 -112 500 -112 q 264 -36 282 -112 q 129 411 263 -32 q 38 846 38 714 q 122 986 38 979 l 372 1006 q 415 981 396 994 q 465 908 458 949 l 475 853 q 610 940 496 940 q 715 928 650 940 q 801 913 794 913 m 792 822 l 567 847 l 461 394 q 372 915 418 656 q 129 896 306 910 l 351 -15 l 549 0 l 792 822 z "},"W":{"ha":1165,"x_min":10,"x_max":1335,"o":"m 1249 1028 q 1335 878 1335 1022 q 1244 425 1335 738 q 1118 -12 1182 206 q 978 -85 1103 -85 q 890 -79 944 -85 q 821 -74 835 -74 q 785 -64 801 -72 q 732 -3 747 -46 l 719 31 q 667 176 710 57 q 608 -21 610 -17 q 532 -87 586 -75 q 331 -106 514 -92 q 273 -85 303 -107 q 236 -36 243 -64 q 101 411 235 -32 q 10 846 10 714 q 94 986 10 979 l 344 1006 q 388 981 368 994 q 438 908 431 949 l 447 853 q 618 950 471 950 q 767 915 699 950 q 863 814 840 876 q 913 1003 892 965 q 1006 1049 939 1049 q 1101 1042 1032 1049 q 1249 1028 1193 1032 m 1242 938 l 982 956 l 889 471 l 764 822 l 539 847 l 433 394 q 344 915 390 656 q 101 896 278 910 l 324 -15 l 521 0 l 660 468 q 821 17 815 31 q 1031 7 879 14 l 1242 938 z "},"X":{"ha":978,"x_min":33,"x_max":1206,"o":"m 1011 992 q 1082 915 1082 976 q 1010 735 1082 856 q 885 531 947 632 q 1138 249 1011 389 q 1165 107 1206 165 q 943 -93 1142 71 q 893 -112 921 -112 q 717 17 819 -112 q 628 149 672 82 q 507 -94 568 26 q 407 -161 467 -161 q 154 -110 378 -161 q 86 -32 86 -94 q 172 178 86 32 q 338 453 254 315 q 96 756 217 604 q 92 890 33 846 q 382 1011 131 919 q 408 1017 394 1017 q 508 951 457 1017 q 571 858 540 904 q 660 1013 635 981 q 740 1056 694 1056 q 840 1036 769 1056 q 1011 992 964 1003 m 1093 147 l 775 519 l 992 904 l 728 964 l 583 685 l 413 926 l 157 833 l 446 461 l 175 -22 l 410 -76 l 611 311 l 886 -24 l 1093 147 z "},"Y":{"ha":754,"x_min":-1,"x_max":881,"o":"m 878 331 q 800 33 875 169 q 460 -168 689 -168 q 174 -29 294 -168 q 65 225 65 94 q 144 347 65 326 q -1 768 -1 478 q 6 885 -1 826 q 86 964 13 932 q 239 993 154 993 q 358 968 313 993 q 411 892 411 942 q 410 874 411 883 q 396 725 396 803 q 406 631 396 668 q 464 647 429 633 q 432 894 432 883 q 493 988 432 964 q 735 1043 513 994 q 757 1044 746 1044 q 817 1022 792 1044 q 844 961 842 999 q 878 331 881 510 m 788 332 q 754 954 790 508 l 521 904 l 561 597 q 400 540 476 540 q 325 588 342 540 q 306 726 306 642 q 321 890 306 807 l 96 874 q 90 776 90 829 q 136 513 90 617 q 354 361 201 361 q 581 424 451 361 q 582 374 582 399 q 469 154 582 151 q 365 310 369 157 l 157 257 q 460 -78 206 -78 q 722 78 633 -78 q 788 332 786 190 m 486 290 q 458 283 472 288 q 468 247 461 260 q 486 290 481 261 z "},"Z":{"ha":806,"x_min":24,"x_max":944,"o":"m 918 569 l 685 297 q 793 290 765 299 q 854 208 854 274 l 854 -24 q 731 -129 854 -90 q 463 -165 619 -165 q 226 -137 324 -165 q 107 -56 119 -107 q 60 171 60 83 q 82 250 60 228 l 424 603 q 167 583 142 583 q 64 643 85 583 q 31 894 54 674 q 126 999 24 969 q 378 1022 208 1022 q 600 1018 438 1022 q 806 1015 739 1013 q 911 910 872 1017 q 944 701 944 818 q 918 569 944 600 m 850 628 l 810 925 l 121 904 l 144 674 l 653 710 l 147 188 l 196 -36 l 764 -24 l 764 208 l 485 203 l 850 628 z "},"[":{"ha":874,"x_min":154,"x_max":872,"o":"m 796 692 q 872 515 872 622 q 729 249 872 365 q 697 195 724 217 q 636 174 671 174 q 522 107 593 143 l 501 107 q 240 311 333 194 q 154 526 154 421 q 229 693 154 625 q 368 747 292 747 q 513 690 443 747 q 656 746 582 746 q 796 692 733 746 m 768 661 q 657 703 718 703 q 513 635 582 703 q 368 704 443 704 q 257 663 307 704 q 197 524 197 608 q 271 338 197 432 q 511 149 354 231 l 513 149 q 624 217 574 181 q 636 215 629 215 q 674 231 658 215 q 690 268 690 246 l 689 269 q 828 524 828 393 q 768 661 828 607 m 660 428 l 600 419 q 603 447 603 433 q 574 490 603 494 q 551 453 551 488 q 561 397 551 429 l 638 407 l 642 357 l 572 350 l 588 272 l 525 260 l 503 440 q 571 549 492 538 q 660 428 654 560 m 665 268 q 636 239 665 239 q 607 268 607 239 q 636 297 607 297 q 665 268 665 297 m 460 504 l 400 496 q 403 524 403 510 q 374 567 403 569 q 350 529 350 564 q 360 474 350 506 l 438 483 l 442 432 l 372 426 l 386 349 l 324 336 l 303 517 q 371 625 292 614 q 460 504 453 635 m 481 346 q 451 317 481 317 q 422 346 422 317 q 451 375 422 375 q 481 346 481 375 z "},"\\":{"ha":792,"x_min":156,"x_max":786,"o":"m 726 661 q 786 524 786 607 q 647 269 786 393 l 649 268 q 633 231 649 246 q 594 215 617 215 q 582 217 588 215 q 471 149 532 181 l 469 149 q 229 338 313 231 q 156 524 156 432 q 215 663 156 608 q 326 704 265 704 q 471 635 401 704 q 615 703 540 703 q 726 661 676 703 m 618 428 q 529 549 613 560 q 461 440 450 538 l 483 260 l 546 272 l 531 350 l 600 357 l 596 407 l 519 397 q 510 453 510 429 q 532 490 510 488 q 561 447 561 494 q 558 419 561 433 l 618 428 m 624 268 q 594 297 624 297 q 565 268 565 297 q 594 239 565 239 q 624 268 624 239 m 418 504 q 329 625 411 636 q 261 517 250 614 l 282 336 l 344 349 l 331 426 l 400 432 l 396 483 l 318 474 q 308 529 308 506 q 332 567 308 564 q 361 524 361 569 q 358 496 361 510 l 418 504 m 439 346 q 410 375 439 375 q 381 346 381 375 q 410 317 381 317 q 439 346 439 317 z "},"]":{"ha":874,"x_min":154,"x_max":872,"o":"m 796 692 q 872 515 872 622 q 729 249 872 365 q 697 195 724 217 q 636 174 671 174 q 522 107 593 143 l 501 107 q 240 311 333 194 q 154 526 154 421 q 229 693 154 625 q 368 747 292 747 q 513 690 443 747 q 656 746 582 746 q 796 692 733 746 m 768 661 q 657 703 718 703 q 513 635 582 703 q 368 704 443 704 q 257 663 307 704 q 197 524 197 608 q 271 338 197 432 q 511 149 354 231 l 513 149 q 624 217 574 181 q 636 215 629 215 q 674 231 658 215 q 690 268 690 246 l 689 269 q 828 524 828 393 q 768 661 828 607 m 660 428 l 600 419 q 603 447 603 433 q 574 490 603 494 q 551 453 551 488 q 561 397 551 429 l 638 407 l 642 357 l 572 350 l 588 272 l 525 260 l 503 440 q 571 549 492 538 q 660 428 654 560 m 665 268 q 636 239 665 239 q 607 268 607 239 q 636 297 607 297 q 665 268 665 297 m 460 504 l 400 496 q 403 524 403 510 q 374 567 403 569 q 350 529 350 564 q 360 474 350 506 l 438 483 l 442 432 l 372 426 l 386 349 l 324 336 l 303 517 q 371 625 292 614 q 460 504 453 635 m 481 346 q 451 317 481 317 q 422 346 422 317 q 451 375 422 375 q 481 346 481 375 z "},"^":{"ha":792,"x_min":156,"x_max":786,"o":"m 726 661 q 786 524 786 607 q 647 269 786 393 l 649 268 q 633 231 649 246 q 594 215 617 215 q 582 217 588 215 q 471 149 532 181 l 469 149 q 229 338 313 231 q 156 524 156 432 q 215 663 156 608 q 326 704 265 704 q 471 635 401 704 q 615 703 540 703 q 726 661 676 703 m 618 428 q 529 549 613 560 q 461 440 450 538 l 483 260 l 546 272 l 531 350 l 600 357 l 596 407 l 519 397 q 510 453 510 429 q 532 490 510 488 q 561 447 561 494 q 558 419 561 433 l 618 428 m 624 268 q 594 297 624 297 q 565 268 565 297 q 594 239 565 239 q 624 268 624 239 m 418 504 q 329 625 411 636 q 261 517 250 614 l 282 336 l 344 349 l 331 426 l 400 432 l 396 483 l 318 474 q 308 529 308 506 q 332 567 308 564 q 361 524 361 569 q 358 496 361 510 l 418 504 m 439 346 q 410 375 439 375 q 381 346 381 375 q 410 317 381 317 q 439 346 439 317 z "},"_":{"ha":874,"x_min":154,"x_max":872,"o":"m 796 692 q 872 515 872 622 q 729 249 872 365 q 697 195 724 217 q 636 174 671 174 q 522 107 593 143 l 501 107 q 240 311 333 194 q 154 526 154 421 q 229 693 154 625 q 368 747 292 747 q 513 690 443 747 q 656 746 582 746 q 796 692 733 746 m 768 661 q 657 703 718 703 q 513 635 582 703 q 368 704 443 704 q 257 663 307 704 q 197 524 197 608 q 271 338 197 432 q 511 149 354 231 l 513 149 q 624 217 574 181 q 636 215 629 215 q 674 231 658 215 q 690 268 690 246 l 689 269 q 828 524 828 393 q 768 661 828 607 m 660 428 l 600 419 q 603 447 603 433 q 574 490 603 494 q 551 453 551 488 q 561 397 551 429 l 638 407 l 642 357 l 572 350 l 588 272 l 525 260 l 503 440 q 571 549 492 538 q 660 428 654 560 m 665 268 q 636 239 665 239 q 607 268 607 239 q 636 297 607 297 q 665 268 665 297 m 460 504 l 400 496 q 403 524 403 510 q 374 567 403 569 q 350 529 350 564 q 360 474 350 506 l 438 483 l 442 432 l 372 426 l 386 349 l 324 336 l 303 517 q 371 625 292 614 q 460 504 453 635 m 481 346 q 451 317 481 317 q 422 346 422 317 q 451 375 422 375 q 481 346 481 375 z "},"`":{"ha":1417,"x_min":61,"x_max":876,"o":"m 785 838 q 876 636 876 753 q 778 391 876 515 q 510 178 679 267 q 468 167 490 167 q 169 390 276 263 q 61 642 61 518 q 151 839 61 756 q 188 864 158 844 q 324 903 251 903 q 468 860 400 903 q 615 901 535 901 q 785 838 717 901 m 724 771 q 613 813 674 813 q 468 744 538 813 q 324 813 399 813 q 213 772 263 813 q 153 633 153 718 q 226 446 153 540 q 467 257 310 340 l 468 257 q 708 446 626 340 q 783 633 783 540 q 724 771 783 717 z "},"a":{"ha":754,"x_min":-35,"x_max":883,"o":"m 882 -76 q 710 -178 883 -178 q 532 -144 615 -178 q 432 -60 444 -110 q 75 47 200 -51 q -35 260 -35 133 q 85 492 -35 397 q 61 557 58 517 q 165 879 78 756 q 460 1028 269 1028 q 768 874 656 1028 q 869 536 865 739 l 882 -76 m 485 571 q 468 617 478 608 q 457 574 461 601 q 485 571 471 572 m 792 -78 l 779 535 q 718 785 776 679 q 460 938 633 938 q 219 799 300 938 q 151 549 164 703 l 365 531 q 469 706 364 703 q 565 624 538 707 q 582 465 585 563 q 378 488 475 488 q 61 278 81 488 q 221 67 47 128 q 531 29 340 25 l 521 -44 l 792 -78 m 564 321 l 556 197 q 406 181 475 181 q 253 271 249 181 q 393 340 256 340 q 564 321 469 340 z "},"b":{"ha":725,"x_min":53,"x_max":875,"o":"m 869 401 q 794 129 865 246 q 308 -96 656 -96 q 131 -82 225 -96 q 76 -50 100 -78 q 53 7 53 -22 l 57 1119 q 113 1197 57 1169 q 236 1222 161 1222 q 383 1192 321 1222 q 450 1104 453 1158 l 444 947 q 769 765 654 929 q 869 401 875 615 m 779 401 q 733 647 786 529 q 350 858 632 876 l 360 1108 l 147 1119 l 143 7 q 307 -6 231 -6 q 729 192 617 -6 q 779 401 786 294 m 604 424 q 583 290 606 346 q 372 158 531 158 q 333 160 353 158 l 351 686 q 574 558 511 692 q 604 424 600 503 m 514 421 q 439 578 515 535 l 426 257 q 507 344 488 278 q 514 421 518 381 z "},"c":{"ha":768,"x_min":3,"x_max":956,"o":"m 906 15 q 822 -18 865 -3 q 626 -79 721 -57 q 435 -103 524 -103 q 104 38 218 -103 q 3 361 3 161 q 133 794 3 600 q 471 1007 272 1001 q 776 875 663 1013 q 892 565 876 756 q 860 483 903 504 l 825 467 q 740 439 783 453 q 622 417 668 417 q 526 504 528 417 q 486 619 525 619 q 429 528 457 619 q 407 389 407 450 q 426 334 407 344 q 472 324 444 324 q 635 368 519 324 q 796 413 750 413 q 878 354 857 413 q 918 258 899 306 q 956 107 956 167 q 906 15 956 38 m 868 97 l 792 325 q 474 235 593 235 q 317 378 321 235 q 343 554 314 456 q 475 711 386 700 q 617 506 604 728 l 803 554 q 757 739 792 663 q 474 917 672 922 q 208 749 319 913 q 100 393 103 592 q 221 49 96 179 q 417 -17 283 -17 q 868 97 603 -17 z "},"d":{"ha":779,"x_min":14,"x_max":888,"o":"m 888 11 q 811 -79 888 -47 q 626 -108 742 -108 q 358 -71 490 -108 q 142 38 215 -31 q 19 269 33 138 q 14 365 14 332 q 131 722 15 585 q 479 885 253 869 q 474 1047 474 1032 q 495 1153 474 1126 q 588 1185 517 1179 q 793 1194 690 1190 q 859 1170 831 1197 q 888 1106 888 1143 l 888 11 m 797 11 l 797 1106 l 561 1092 l 572 796 q 182 643 299 810 q 104 361 104 532 q 110 279 104 315 q 174 135 124 196 q 572 -10 293 -10 q 797 11 675 -10 m 604 183 q 553 181 578 181 q 285 374 315 181 q 321 494 290 444 q 585 608 394 614 l 604 183 m 510 274 l 499 511 q 375 381 386 488 q 510 274 394 288 z "},"e":{"ha":754,"x_min":-11,"x_max":917,"o":"m 907 449 q 815 358 904 386 q 917 226 917 296 q 906 186 917 206 q 738 0 836 74 q 449 -99 606 -99 q 350 -89 400 -99 q 72 96 167 -54 q -11 414 -11 228 q 0 547 -11 481 q 121 836 29 715 q 385 994 229 976 q 447 997 417 997 q 797 829 669 997 q 907 449 915 674 m 828 233 l 660 319 q 633 272 649 293 q 547 203 597 221 q 449 183 493 183 q 274 404 288 183 l 817 451 q 776 679 814 585 q 453 907 689 907 q 394 904 424 907 q 146 707 236 886 q 89 532 110 633 q 79 414 79 478 q 131 171 79 271 q 367 0 203 31 q 447 -8 407 -8 q 828 233 682 -8 m 569 339 l 569 339 l 381 322 q 461 274 406 274 q 569 339 536 274 m 574 588 l 300 557 q 429 711 314 694 q 450 713 440 713 q 574 588 547 713 z "},"f":{"ha":672,"x_min":42,"x_max":807,"o":"m 807 547 q 722 456 807 485 q 738 290 726 429 q 693 208 742 235 q 589 183 657 189 q 499 179 543 182 q 531 -26 531 10 q 468 -112 531 -90 q 233 -160 464 -114 q 215 -161 224 -161 q 155 -139 181 -161 q 125 -82 129 -117 l 46 583 q 42 661 42 624 q 157 978 42 857 q 413 1088 263 1088 q 615 1022 524 1088 q 760 817 714 950 q 807 547 807 683 m 410 564 q 403 694 419 669 q 410 564 388 693 m 717 547 q 681 771 710 678 q 429 996 608 996 q 389 993 410 996 q 132 672 132 960 q 136 594 132 635 l 215 -71 l 446 -25 l 390 261 l 647 283 l 632 469 l 349 433 q 313 640 313 551 q 396 779 313 769 q 504 622 504 792 q 494 517 504 569 l 717 547 z "},"g":{"ha":697,"x_min":3,"x_max":839,"o":"m 835 231 q 839 153 839 190 q 724 -164 839 -43 q 467 -274 617 -274 q 265 -208 356 -274 q 120 -3 167 -136 q 74 267 74 131 q 113 333 74 303 q 3 572 3 436 q 7 625 3 599 q 129 863 33 783 q 367 932 225 943 q 473 1003 389 971 q 635 1035 557 1035 q 767 953 758 1035 l 835 231 m 744 219 q 676 944 731 339 l 443 888 l 457 825 q 336 843 394 843 q 96 610 136 843 q 93 574 93 592 q 175 397 93 471 q 390 326 263 318 q 557 393 506 333 l 558 389 q 579 213 579 294 q 485 35 579 46 q 376 192 376 22 q 386 297 376 244 l 164 267 q 200 43 171 136 q 453 -182 272 -182 q 492 -179 471 -182 q 749 142 749 -146 q 744 219 749 179 m 488 254 q 469 247 479 250 l 469 244 q 478 119 458 147 q 488 254 501 122 m 517 533 q 385 489 443 489 q 299 551 319 489 q 293 585 293 568 q 475 722 293 681 l 517 533 m 413 585 l 408 603 q 383 581 382 588 q 413 585 393 581 z "},"h":{"ha":792,"x_min":10,"x_max":888,"o":"m 888 74 q 872 -133 888 -92 q 779 -194 854 -185 q 535 -210 657 -203 q 467 -185 496 -212 q 439 -118 439 -158 l 439 -90 q 396 -101 422 -100 q 340 -107 369 -103 q 243 -112 285 -112 q 67 -18 71 -112 l 13 1107 q 108 1213 10 1167 q 307 1257 201 1257 q 463 1154 468 1257 l 444 844 q 533 858 492 858 q 829 547 740 858 q 888 74 888 347 m 792 -101 q 797 63 797 -28 q 750 507 797 332 q 525 764 682 764 q 344 697 446 764 l 372 1160 l 103 1111 l 157 -14 l 396 -10 q 372 397 367 308 q 401 472 375 439 q 456 506 426 506 q 517 400 506 506 q 529 -119 533 232 l 792 -101 z "},"i":{"ha":476,"x_min":38,"x_max":590,"o":"m 525 840 q 526 817 525 840 q 561 528 528 794 q 590 165 590 292 q 478 -92 590 -96 l 149 -81 q 38 215 38 -78 q 63 564 38 347 q 89 806 89 794 q 146 882 90 847 q 39 1089 39 979 q 86 1213 39 1157 q 113 1236 90 1218 q 213 1269 158 1269 q 286 1251 251 1269 q 379 1283 326 1283 q 479 1244 438 1283 q 554 1097 554 1186 q 478 910 554 1004 q 525 840 522 886 m 421 1175 q 376 1193 400 1193 q 301 1124 332 1193 q 213 1179 258 1179 q 154 1153 179 1179 q 133 1078 133 1115 q 314 885 133 961 q 460 1090 460 978 q 421 1175 460 1146 m 481 -1 l 435 836 l 179 803 l 151 10 l 481 -1 z "},"j":{"ha":782,"x_min":39,"x_max":894,"o":"m 893 136 q 815 -168 889 -32 q 490 -383 700 -383 q 258 -300 365 -383 q 92 -65 146 -214 q 39 185 39 85 q 107 307 39 292 q 200 338 154 322 q 349 364 290 364 q 453 265 463 364 q 447 179 447 221 q 450 126 447 151 l 450 126 q 478 36 457 51 q 506 81 497 22 q 496 276 514 150 q 453 494 493 297 q 425 708 425 635 q 482 842 425 818 q 456 871 479 844 q 357 1057 357 975 q 382 1135 357 1099 q 407 1161 388 1142 q 515 1201 456 1201 q 574 1190 546 1201 q 671 1225 615 1225 q 761 1194 722 1225 q 844 1042 844 1138 q 721 801 844 917 l 849 810 q 881 440 865 682 q 893 136 894 210 m 707 1121 q 668 1135 689 1135 q 597 1064 624 1135 q 514 1111 556 1111 q 456 1082 481 1111 q 444 1028 444 1054 q 625 838 444 907 q 750 1035 750 931 q 707 1121 750 1093 m 803 138 q 790 436 804 211 q 760 799 775 674 q 517 758 694 786 l 585 290 q 593 163 593 226 q 483 -57 593 -60 q 360 201 360 -54 q 363 275 360 242 l 128 219 q 178 -35 139 72 q 474 -290 268 -289 q 736 -126 647 -292 q 803 138 800 -8 z "},"k":{"ha":831,"x_min":67,"x_max":1006,"o":"m 919 792 q 799 465 900 593 q 946 189 883 382 q 1006 -156 1006 4 q 906 -368 1006 -361 q 617 -383 674 -383 q 515 -368 542 -383 q 489 -311 489 -353 q 507 -172 489 -300 q 522 69 525 -49 q 489 258 519 201 q 493 211 489 258 q 497 119 497 160 q 393 -90 497 -90 l 157 -90 q 94 -63 121 -90 q 67 0 67 -36 l 67 904 q 144 994 67 958 q 311 1025 217 1025 q 446 1000 393 1025 q 503 918 504 971 l 496 688 q 515 789 513 714 q 525 903 518 878 q 590 957 540 957 q 629 951 607 957 q 721 933 675 942 q 856 886 807 915 q 919 792 925 847 m 899 -278 q 826 265 906 82 q 663 457 774 385 q 829 801 807 568 l 606 864 q 610 794 610 828 q 401 553 610 560 l 413 921 l 157 904 l 157 0 l 393 0 l 401 364 q 457 374 431 374 q 613 46 613 374 q 579 -300 613 -114 l 899 -278 z "},"l":{"ha":410,"x_min":67,"x_max":515,"o":"m 514 933 l 485 -17 q 428 -93 483 -65 q 301 -117 378 -117 q 149 -86 214 -117 q 76 -1 76 -54 l 67 903 q 156 1000 67 960 q 338 1036 238 1036 q 463 1013 415 1036 q 514 933 515 985 m 424 936 l 157 904 l 167 0 l 394 -14 l 424 936 z "},"m":{"ha":1349,"x_min":65,"x_max":1451,"o":"m 1447 -10 q 1364 -110 1451 -71 q 1178 -146 1283 -146 q 1047 -124 1100 -146 q 981 -56 989 -100 l 981 -67 q 926 -143 981 -117 q 800 -168 879 -168 q 604 -125 690 -168 q 522 -14 510 -79 l 600 390 q 617 544 617 479 q 578 651 617 651 q 524 597 553 651 q 474 433 493 536 q 471 381 471 408 q 493 186 471 313 q 517 -8 515 54 q 433 -106 518 -65 q 258 -142 354 -142 q 92 -46 94 -142 l 67 901 q 133 988 65 958 q 275 1013 190 1013 q 397 992 360 1013 q 574 1031 479 1031 q 799 964 701 1031 q 1021 1035 893 1035 q 1378 818 1278 1035 q 1449 361 1449 665 q 1447 213 1449 308 q 1444 79 1444 118 q 1447 -10 1444 26 m 1040 633 q 981 18 981 515 q 1035 393 988 163 q 1049 533 1047 451 q 1040 633 1049 611 m 1357 -17 q 1347 283 1347 125 q 1356 539 1347 421 q 1290 790 1364 669 q 1021 944 1197 944 q 803 842 885 944 q 574 940 714 940 q 361 860 453 940 l 357 913 l 157 904 l 182 -43 l 426 -11 q 403 160 425 21 q 381 379 381 294 q 383 446 381 414 q 428 590 401 531 q 589 738 492 735 q 699 513 699 740 q 689 375 699 443 l 611 -31 l 890 -67 q 914 496 890 283 q 1036 729 940 729 q 1139 535 1139 729 q 1124 376 1139 458 q 1069 -40 1069 126 l 1357 -17 z "},"n":{"ha":924,"x_min":64,"x_max":1022,"o":"m 1021 -44 q 942 -139 1022 -101 q 771 -174 867 -174 q 649 -149 696 -174 q 596 -72 596 -122 l 599 376 q 590 546 600 468 q 569 644 582 611 q 481 378 481 622 q 494 147 481 281 q 514 -3 504 72 q 436 -104 519 -62 q 265 -143 360 -143 q 107 -50 111 -143 l 67 900 q 147 996 64 960 q 310 1028 219 1028 q 419 1001 392 1028 q 574 1031 492 1031 q 918 836 801 1031 q 1004 542 1000 700 q 1021 -44 1007 422 m 931 -47 l 914 540 q 842 789 911 676 q 574 940 749 940 q 364 863 454 940 l 358 935 l 157 904 l 197 -46 l 424 -12 q 393 438 392 299 q 424 614 393 540 q 589 738 472 735 q 681 557 658 739 q 689 375 689 482 l 686 -72 l 931 -47 z "},"o":{"ha":821,"x_min":44,"x_max":938,"o":"m 938 419 q 447 -121 938 -136 q 107 60 196 -112 q 44 453 44 182 q 177 841 44 674 q 496 1008 310 1008 q 814 832 686 1008 q 938 419 938 661 m 847 419 q 740 779 847 635 q 496 918 639 918 q 246 783 354 918 q 135 453 135 644 q 178 119 135 213 q 450 -31 244 -24 q 769 93 675 -37 q 847 419 847 200 m 646 443 q 601 253 653 328 q 469 182 549 179 q 369 243 396 185 q 343 444 343 301 q 410 643 344 575 q 499 694 449 683 q 589 628 544 693 q 646 443 639 554 m 556 438 q 496 599 549 551 q 433 443 435 551 q 451 282 433 321 q 474 272 460 278 q 526 304 501 272 q 556 438 560 350 z "},"p":{"ha":814,"x_min":26,"x_max":929,"o":"m 929 564 q 824 232 929 363 q 503 63 713 93 q 510 -26 510 8 q 478 -122 510 -96 q 379 -151 453 -144 q 203 -168 292 -160 q 135 -148 165 -172 q 101 -85 104 -124 l 31 906 q 124 1011 26 969 q 356 1050 217 1050 q 708 971 557 1050 q 915 708 888 878 q 929 564 929 622 m 826 692 q 763 821 808 767 q 411 950 650 950 q 121 911 282 950 l 192 -78 l 426 -49 l 400 144 q 761 299 651 150 q 839 565 839 403 q 826 692 839 633 m 658 585 q 631 463 657 514 q 375 332 565 339 l 326 753 q 410 760 371 760 q 658 585 617 760 m 568 572 q 528 638 556 614 q 426 669 492 667 l 454 433 q 568 572 564 465 z "},"q":{"ha":822,"x_min":42,"x_max":1238,"o":"m 1157 -267 l 846 -500 q 768 -517 824 -517 q 586 -479 674 -517 q 490 -374 488 -436 l 507 3 q 158 165 281 18 q 42 522 43 303 q 49 619 42 567 q 272 913 71 804 q 658 1004 444 1004 q 856 970 779 1004 q 932 878 933 936 l 900 -37 q 1038 -68 949 -37 q 1186 -147 1146 -103 q 1157 -267 1238 -206 m 1103 -194 q 896 -128 999 -128 q 806 -144 847 -128 l 842 881 q 617 901 721 901 q 208 754 335 901 q 138 607 156 693 q 132 526 132 572 q 210 244 132 356 q 600 92 326 78 l 581 -378 l 792 -428 l 1103 -194 m 632 704 l 613 279 q 349 393 422 274 q 313 514 318 443 q 581 707 343 707 q 632 704 606 707 m 538 614 q 439 575 472 606 q 403 507 413 550 q 526 376 414 400 l 538 614 z "},"r":{"ha":792,"x_min":67,"x_max":968,"o":"m 958 504 q 870 387 968 440 q 668 333 772 333 q 528 418 539 333 q 493 624 514 513 q 490 589 490 606 q 511 4 490 481 q 485 -62 513 -35 q 421 -90 458 -90 l 167 -90 q 103 -63 131 -90 q 76 -1 76 -36 l 67 903 q 154 1000 67 961 q 324 1033 232 1033 q 429 1007 401 1033 q 565 1038 500 1038 q 840 851 729 1038 q 958 504 928 707 m 869 490 q 806 719 844 624 q 567 949 711 949 q 511 940 539 949 q 375 871 433 918 l 367 942 l 157 904 l 167 0 l 421 0 q 400 589 400 479 q 429 699 400 667 q 522 732 458 732 q 618 425 589 732 l 869 490 z "},"s":{"ha":693,"x_min":46,"x_max":979,"o":"m 85 731 q 211 951 99 851 q 482 1058 331 1058 q 518 1057 500 1058 q 717 972 593 1050 q 906 806 842 893 q 921 646 979 704 q 861 576 892 611 q 744 469 796 504 q 799 244 799 374 q 719 -28 799 85 q 483 -157 631 -154 q 164 -11 299 -160 q 46 253 46 119 q 126 361 46 353 q 211 378 149 367 q 82 665 82 488 q 85 731 82 697 m 136 272 q 325 -28 164 56 q 482 -67 393 -61 q 650 36 585 -67 q 710 254 710 129 q 675 414 710 346 q 567 513 636 488 q 414 596 467 546 q 368 683 368 640 q 401 742 368 721 q 490 758 435 764 q 564 729 529 753 q 679 533 643 674 l 857 710 q 510 967 658 953 q 281 893 385 979 q 175 719 185 814 q 172 674 172 697 q 378 372 172 447 q 490 296 451 346 q 524 203 524 251 q 503 142 524 167 q 449 117 483 117 q 368 242 368 125 q 374 297 368 267 l 136 272 z "},"t":{"ha":754,"x_min":58,"x_max":885,"o":"m 882 344 q 790 0 875 135 q 482 -168 685 -168 q 174 -14 286 -168 q 72 324 76 121 l 60 936 q 118 1017 58 988 q 256 1043 171 1043 q 436 1006 360 1043 q 513 903 522 965 l 506 846 q 726 839 615 843 q 835 814 808 835 q 863 726 863 793 q 844 515 863 693 q 840 499 843 507 q 882 435 882 469 q 882 344 885 394 m 792 428 l 564 449 q 576 325 576 385 q 472 154 576 157 q 360 374 360 151 q 367 488 360 432 l 378 574 l 754 525 l 776 743 l 403 761 l 424 915 l 150 938 l 163 325 q 224 75 165 181 q 482 -78 308 -78 q 768 175 700 -78 q 792 428 796 281 m 475 429 q 475 468 471 450 l 456 472 q 450 376 450 432 q 469 244 450 244 q 486 324 486 244 q 475 429 486 381 z "},"u":{"ha":800,"x_min":22,"x_max":943,"o":"m 890 382 q 751 21 842 154 q 425 -147 624 -168 q 106 63 207 -125 q 22 467 22 215 q 88 939 22 700 q 153 997 97 976 q 276 1017 204 1017 q 497 947 435 1017 q 700 1013 549 1013 q 867 982 797 1013 q 943 893 943 949 q 938 733 943 813 q 890 382 924 540 m 446 288 q 499 583 499 339 q 492 778 499 674 q 425 381 425 515 q 446 288 425 311 m 853 893 l 572 900 q 590 596 590 733 q 439 200 590 196 q 338 392 338 203 q 429 893 338 576 l 175 914 q 113 454 113 672 q 433 -58 113 -24 q 803 401 699 -86 q 853 893 846 604 z "},"v":{"ha":750,"x_min":68,"x_max":906,"o":"m 836 882 q 906 782 906 868 q 850 560 906 706 q 724 269 815 471 q 589 -37 628 61 q 522 -90 576 -71 q 408 -108 474 -108 q 283 -86 335 -108 q 218 -17 225 -61 q 129 407 211 22 q 68 835 68 699 q 165 1014 68 1015 l 417 1013 q 457 992 440 1004 q 501 907 496 961 l 506 850 q 624 928 531 928 q 740 908 669 928 q 836 882 788 894 m 818 793 l 597 838 l 451 396 q 408 922 431 658 q 165 924 342 922 l 307 -3 l 504 -6 l 818 793 z "},"w":{"ha":1165,"x_min":31,"x_max":1357,"o":"m 1278 1006 q 1357 874 1357 996 q 1249 421 1357 738 q 1094 -26 1171 197 q 971 -92 1075 -92 q 872 -82 933 -92 q 793 -71 806 -72 q 758 -60 774 -68 q 708 4 721 -40 l 697 38 q 653 186 690 64 q 583 -8 586 -3 q 504 -69 558 -60 q 303 -78 486 -72 q 245 -55 274 -78 q 211 -5 217 -32 q 104 432 206 22 q 31 864 31 729 q 124 1025 31 1022 l 374 1031 q 414 1013 397 1025 q 463 929 456 982 l 469 872 q 628 963 494 963 q 783 924 711 963 q 882 813 861 881 q 939 994 917 957 q 1022 1040 965 1040 q 1122 1029 1051 1040 q 1278 1006 1226 1013 m 1267 917 l 1008 947 l 890 468 l 783 826 l 560 863 l 431 417 q 369 942 401 679 q 125 935 303 939 l 300 13 l 497 18 l 660 478 q 799 18 793 32 q 1007 -1 856 13 l 1267 917 z "},"x":{"ha":978,"x_min":44,"x_max":1217,"o":"m 239 992 q 168 915 168 976 q 240 735 168 856 q 365 531 303 632 q 113 249 239 389 q 85 107 44 165 q 307 -93 108 71 q 357 -112 329 -112 q 533 17 431 -112 q 622 149 578 82 q 743 -94 682 26 q 843 -161 783 -161 q 1096 -110 872 -161 q 1164 -32 1164 -94 q 1078 178 1164 32 q 913 453 996 315 q 1154 756 1033 604 q 1158 890 1217 846 q 868 1011 1119 919 q 842 1017 856 1017 q 742 951 793 1017 q 679 858 710 904 q 590 1013 615 981 q 510 1056 556 1056 q 410 1036 481 1056 q 239 992 286 1003 m 157 147 l 475 519 l 258 904 l 522 964 l 667 685 l 838 926 l 1093 833 l 804 461 l 1075 -22 l 840 -76 l 639 311 l 364 -24 l 157 147 z "},"y":{"ha":754,"x_min":39,"x_max":911,"o":"m 864 286 q 751 1 842 126 q 389 -158 617 -186 q 133 -3 235 -139 q 43 249 43 119 q 139 392 43 379 q 39 719 39 507 q 67 942 39 831 q 133 1003 76 981 q 258 1024 186 1024 q 403 996 343 1024 q 471 911 471 964 q 465 882 471 897 q 431 678 431 772 q 432 642 431 658 q 492 650 456 640 q 489 757 490 692 q 488 838 488 815 q 508 953 488 924 q 599 992 528 982 q 810 1010 704 1000 q 881 986 851 1014 q 907 917 911 958 q 896 674 901 785 q 864 286 881 406 m 775 299 q 818 919 799 474 l 579 899 l 582 589 q 435 551 507 551 q 347 608 360 551 q 340 678 340 639 q 379 910 340 779 l 154 921 q 131 713 131 815 q 389 378 131 378 q 581 415 472 378 q 438 161 564 142 q 351 294 351 174 q 353 328 351 310 l 140 301 q 400 -68 147 -37 q 442 -71 421 -71 q 689 68 594 -71 q 775 299 757 169 m 469 294 q 442 290 456 292 q 447 253 442 267 q 469 294 461 265 z "},"z":{"ha":806,"x_min":29,"x_max":960,"o":"m 919 524 l 664 272 q 771 257 743 267 q 825 169 831 235 l 804 -61 q 710 -146 799 -117 q 503 -172 629 -172 q 208 -133 340 -172 q 58 -28 65 -92 q 29 171 29 89 q 60 279 29 253 l 431 600 q 163 604 296 601 q 75 675 89 613 q 64 925 68 706 q 281 1029 63 1029 q 564 1007 375 1029 q 847 978 785 981 q 935 890 904 974 q 960 713 960 817 q 919 524 960 563 m 857 588 l 843 888 l 154 926 l 158 694 l 668 686 l 118 210 l 147 -17 l 714 -54 l 735 178 l 456 196 l 857 588 z "},"{":{"ha":792,"x_min":156,"x_max":786,"o":"m 726 661 q 786 524 786 607 q 647 269 786 393 l 649 268 q 633 231 649 246 q 594 215 617 215 q 582 217 588 215 q 471 149 532 181 l 469 149 q 229 338 313 231 q 156 524 156 432 q 215 663 156 608 q 326 704 265 704 q 471 635 401 704 q 615 703 540 703 q 726 661 676 703 m 618 428 q 529 549 613 560 q 461 440 450 538 l 483 260 l 546 272 l 531 350 l 600 357 l 596 407 l 519 397 q 510 453 510 429 q 532 490 510 488 q 561 447 561 494 q 558 419 561 433 l 618 428 m 624 268 q 594 297 624 297 q 565 268 565 297 q 594 239 565 239 q 624 268 624 239 m 418 504 q 329 625 411 636 q 261 517 250 614 l 282 336 l 344 349 l 331 426 l 400 432 l 396 483 l 318 474 q 308 529 308 506 q 332 567 308 564 q 361 524 361 569 q 358 496 361 510 l 418 504 m 439 346 q 410 375 439 375 q 381 346 381 375 q 410 317 381 317 q 439 346 439 317 z "},"|":{"ha":874,"x_min":154,"x_max":872,"o":"m 796 692 q 872 515 872 622 q 729 249 872 365 q 697 195 724 217 q 636 174 671 174 q 522 107 593 143 l 501 107 q 240 311 333 194 q 154 526 154 421 q 229 693 154 625 q 368 747 292 747 q 513 690 443 747 q 656 746 582 746 q 796 692 733 746 m 768 661 q 657 703 718 703 q 513 635 582 703 q 368 704 443 704 q 257 663 307 704 q 197 524 197 608 q 271 338 197 432 q 511 149 354 231 l 513 149 q 624 217 574 181 q 636 215 629 215 q 674 231 658 215 q 690 268 690 246 l 689 269 q 828 524 828 393 q 768 661 828 607 m 660 428 l 600 419 q 603 447 603 433 q 574 490 603 494 q 551 453 551 488 q 561 397 551 429 l 638 407 l 642 357 l 572 350 l 588 272 l 525 260 l 503 440 q 571 549 492 538 q 660 428 654 560 m 665 268 q 636 239 665 239 q 607 268 607 239 q 636 297 607 297 q 665 268 665 297 m 460 504 l 400 496 q 403 524 403 510 q 374 567 403 569 q 350 529 350 564 q 360 474 350 506 l 438 483 l 442 432 l 372 426 l 386 349 l 324 336 l 303 517 q 371 625 292 614 q 460 504 453 635 m 481 346 q 451 317 481 317 q 422 346 422 317 q 451 375 422 375 q 481 346 481 375 z "},"}":{"ha":792,"x_min":156,"x_max":786,"o":"m 726 661 q 786 524 786 607 q 647 269 786 393 l 649 268 q 633 231 649 246 q 594 215 617 215 q 582 217 588 215 q 471 149 532 181 l 469 149 q 229 338 313 231 q 156 524 156 432 q 215 663 156 608 q 326 704 265 704 q 471 635 401 704 q 615 703 540 703 q 726 661 676 703 m 618 428 q 529 549 613 560 q 461 440 450 538 l 483 260 l 546 272 l 531 350 l 600 357 l 596 407 l 519 397 q 510 453 510 429 q 532 490 510 488 q 561 447 561 494 q 558 419 561 433 l 618 428 m 624 268 q 594 297 624 297 q 565 268 565 297 q 594 239 565 239 q 624 268 624 239 m 418 504 q 329 625 411 636 q 261 517 250 614 l 282 336 l 344 349 l 331 426 l 400 432 l 396 483 l 318 474 q 308 529 308 506 q 332 567 308 564 q 361 524 361 569 q 358 496 361 510 l 418 504 m 439 346 q 410 375 439 375 q 381 346 381 375 q 410 317 381 317 q 439 346 439 317 z "},"~":{"ha":874,"x_min":154,"x_max":872,"o":"m 796 692 q 872 515 872 622 q 729 249 872 365 q 697 195 724 217 q 636 174 671 174 q 522 107 593 143 l 501 107 q 240 311 333 194 q 154 526 154 421 q 229 693 154 625 q 368 747 292 747 q 513 690 443 747 q 656 746 582 746 q 796 692 733 746 m 768 661 q 657 703 718 703 q 513 635 582 703 q 368 704 443 704 q 257 663 307 704 q 197 524 197 608 q 271 338 197 432 q 511 149 354 231 l 513 149 q 624 217 574 181 q 636 215 629 215 q 674 231 658 215 q 690 268 690 246 l 689 269 q 828 524 828 393 q 768 661 828 607 m 660 428 l 600 419 q 603 447 603 433 q 574 490 603 494 q 551 453 551 488 q 561 397 551 429 l 638 407 l 642 357 l 572 350 l 588 272 l 525 260 l 503 440 q 571 549 492 538 q 660 428 654 560 m 665 268 q 636 239 665 239 q 607 268 607 239 q 636 297 607 297 q 665 268 665 297 m 460 504 l 400 496 q 403 524 403 510 q 374 567 403 569 q 350 529 350 564 q 360 474 350 506 l 438 483 l 442 432 l 372 426 l 386 349 l 324 336 l 303 517 q 371 625 292 614 q 460 504 453 635 m 481 346 q 451 317 481 317 q 422 346 422 317 q 451 375 422 375 q 481 346 481 375 z "}}}
